<?xml version="1.0" encoding="utf-8"?>
<!-- Generator: Adobe Illustrator 26.0.1, SVG Export Plug-In . SVG Version: 6.00 Build 0)  -->
<svg version="1.1" xmlns="http://www.w3.org/2000/svg" xmlns:xlink="http://www.w3.org/1999/xlink" x="0px" y="0px"
	 viewBox="0 0 1011.7 115" style="enable-background:new 0 0 1011.7 115;" xml:space="preserve">
<style type="text/css">
	.st0{display:none;}
	.st1{display:inline;}
	.st2{fill:none;stroke:#00ADEF;stroke-width:0.75;stroke-miterlimit:10;}
	.st3{display:none;fill:none;stroke:#000000;stroke-width:0.75;stroke-miterlimit:10;}
	.st4{fill:none;}
	.st5{fill:#FFFFFF;stroke:#00ADEF;stroke-width:0.75;stroke-miterlimit:10;}
	.st6{display:inline;fill:#FFFFFF;}
	.st7{display:inline;fill:#FFFFFF;stroke:#00ADEF;stroke-width:0.75;stroke-miterlimit:10;}
	.st8{display:inline;fill:none;stroke:#00ADEF;stroke-width:0.75;stroke-miterlimit:10;}
	.st9{fill:none;stroke:#00ADEF;stroke-width:0.5;stroke-miterlimit:10;}
	.st10{fill:#F79F1F;}
	.st11{fill:#9980FA;}
	.st12{opacity:0.3;fill:#FFC312;}
	.st13{opacity:0.3;fill:#F79F1F;}
	.st14{display:none;fill:#FFFFFF;stroke:#00ADEF;stroke-width:0.75;stroke-miterlimit:10;}
	.st15{fill:#FFC312;}
	.st16{fill:#ED4C67;}
	.st17{fill:#00ADEF;}
	.st18{clip-path:url(#SVGID_00000111884412869911352480000016047371970872835457_);}
	.st19{clip-path:url(#SVGID_00000168797680043995169940000010468178842327296446_);}
	.st20{clip-path:url(#SVGID_00000119829115359966911210000015995991470776560569_);fill:#F2CE86;}
	.st21{opacity:0.5;clip-path:url(#SVGID_00000133491981038935116260000015707642953175833755_);}
	.st22{clip-path:url(#SVGID_00000111152009621670582050000018190244963785013686_);fill:#FF5E39;}
	.st23{opacity:0.7;clip-path:url(#SVGID_00000152955800163140628810000000672003756912182960_);}
	.st24{clip-path:url(#SVGID_00000047029645225314150760000002451641730316989116_);fill:#FF5E39;}
	.st25{opacity:0.58;clip-path:url(#SVGID_00000152955800163140628810000000672003756912182960_);}
	.st26{clip-path:url(#SVGID_00000018947983928176677490000000594118410092090044_);fill:#FF5E39;}
	.st27{clip-path:url(#SVGID_00000163764533243879609090000015909260540113490569_);fill:#FF5E39;}
	.st28{clip-path:url(#SVGID_00000089550118862784173110000001032273225225771904_);}
	.st29{clip-path:url(#SVGID_00000176731077070399379930000009585766472411093434_);fill:#F79F1F;}
	.st30{opacity:0.5;clip-path:url(#SVGID_00000176731077070399379930000009585766472411093434_);fill:#EE5A24;}
	.st31{clip-path:url(#SVGID_00000071537571860633957140000004668512628402259877_);fill:#ED4C67;}
	.st32{clip-path:url(#SVGID_00000142134067998838538380000010626270250544774319_);}
	.st33{clip-path:url(#SVGID_00000000224282593429888330000018353934290635212707_);}
	.st34{opacity:0.53;clip-path:url(#SVGID_00000142147554673112290010000011676200823751507075_);}
	.st35{clip-path:url(#SVGID_00000125572076517039379570000003436549317298277547_);fill:#ED4C67;}
	.st36{opacity:0.38;clip-path:url(#SVGID_00000142147554673112290010000011676200823751507075_);}
	.st37{clip-path:url(#SVGID_00000144322453821770008370000002386576966204673676_);fill:#B53471;}
	.st38{opacity:0.56;clip-path:url(#SVGID_00000142147554673112290010000011676200823751507075_);}
	.st39{clip-path:url(#SVGID_00000008866877570236116890000014277974582198540931_);fill:#9980FA;}
	.st40{clip-path:url(#SVGID_00000146499856469446632650000018400552852976833965_);fill:#9980FA;}
	.st41{opacity:0.2;clip-path:url(#SVGID_00000142147554673112290010000011676200823751507075_);}
	.st42{clip-path:url(#SVGID_00000160157677585653252640000011729320308788945592_);fill:#FFC312;}
	.st43{opacity:0.4;clip-path:url(#SVGID_00000142147554673112290010000011676200823751507075_);}
	.st44{clip-path:url(#SVGID_00000161603143456840814560000017413885039235297955_);fill:#FFC312;}
	.st45{clip-path:url(#SVGID_00000142147554673112290010000011676200823751507075_);fill:#FFC312;}
	.st46{clip-path:url(#SVGID_00000093139254482758343720000003178011045838059140_);fill:#FFC312;}
	.st47{clip-path:url(#SVGID_00000023280114874220756470000005858696504561487797_);fill:#FFC312;}
	.st48{clip-path:url(#SVGID_00000100356491971228405580000004428085662513323944_);fill:#F79F1F;}
	.st49{clip-path:url(#SVGID_00000042706978895512449550000005709414508367683976_);fill:#F79F1F;}
	.st50{clip-path:url(#SVGID_00000142147554673112290010000011676200823751507075_);fill:#F79F1F;}
	.st51{clip-path:url(#SVGID_00000077321410123870761580000014893607097769594267_);fill:#F79F1F;}
	.st52{clip-path:url(#SVGID_00000121975572617275001580000004142065030661807034_);fill:#F79F1F;}
	.st53{clip-path:url(#SVGID_00000039841294284980502550000002791155768005574809_);fill:#FFC312;}
	.st54{clip-path:url(#SVGID_00000029755128317413698270000005253387772091046791_);fill:#FFC312;}
	.st55{clip-path:url(#SVGID_00000169559811608152816910000007681771272527839652_);fill:#F9E491;}
	.st56{clip-path:url(#SVGID_00000028312674286577805230000007349613022292508809_);fill:#F9E491;}
	.st57{clip-path:url(#SVGID_00000142147554673112290010000011676200823751507075_);fill:#F9E491;}
	.st58{clip-path:url(#SVGID_00000142871608438461574700000013299016983303348883_);fill:#F9E491;}
	.st59{clip-path:url(#SVGID_00000167368460373472886460000016126146044863577239_);fill:#F9E491;}
	.st60{clip-path:url(#SVGID_00000126319061657700013740000011288201667359724223_);fill:#FFC312;}
	.st61{clip-path:url(#SVGID_00000076583984393098141530000002623732385405676218_);fill:#FFC312;}
</style>
<g id="Layer_1" class="st0">
	
		<image style="display:inline;overflow:visible;" width="3508" height="2480" xlink:href="../BorderforColouringSheet.jpg"  transform="matrix(0.24 0 0 0.24 -1.511811e-02 -0.6681)">
	</image>
</g>
<g id="Layer_11" class="st0">
	<g class="st1">
		
			<ellipse transform="matrix(0.2603 -0.9655 0.9655 0.2603 107.0824 269.7433)" class="st2" cx="229.6" cy="65" rx="34.2" ry="34.2"/>
		<path class="st3" d="M251.6,91.2c-2.2,1.8-4.6,3.4-7.2,4.6c-17.1,8.1-37.5,0.9-45.6-16.2c-8.1-17.1-0.9-37.5,16.2-45.6
			c1.2-0.6,2.4-1.1,3.7-1.5c-11.7,9.8-15.8,26.6-8.9,41C217.2,89.4,235.3,96.8,251.6,91.2z"/>
		<path class="st4" d="M255.2,89.7c-1.2,0.6-2.4,1.1-3.7,1.5c11.7-9.8,15.8-26.6,8.9-41c-7.6-15.8-25.7-23.2-41.9-17.7
			c2.2-1.8,4.6-3.4,7.2-4.6c17.1-8.1,37.5-0.9,45.6,16.2C279.5,61.2,272.3,81.6,255.2,89.7z"/>
		<path class="st5" d="M255.2,71.8c-5.3,3.3-11.1,6.5-17.3,9.4c-10.1,4.8-20.1,8.5-29.1,11c-18.9,5.3-33.3,5.5-35.2,1.6
			c-1.8-3.8,6.9-14.9,22.1-24.4c0,0,0.5,2.6,0.5,2.6c0,0.3,0.1,0.6,0.1,1c0,0.2,0.6,1.8,1,2.8c-0.1,0-0.2,0-0.2,0s0.1,0.3,0.3,0.9
			c-3.3,2-6.5,5.5-6,6.7c0.8,1.6,4.6,1,9.2-0.1c7.9-1.8,20-6.9,31.7-12.5c4.5-2.1,9.2-4.6,13.7-7.2c9.5-0.9,12.1,2,13.1,2
			C259.6,65.6,258,68.4,255.2,71.8z"/>
		<path class="st2" d="M197.3,75.7c0.2,0.4,0.3,0.7,0.3,0.8c-0.1,0-0.1,0.1-0.2,0.1c-0.2-0.5-0.3-0.9-0.3-0.9S197.1,75.7,197.3,75.7
			z"/>
		<path class="st5" d="M255.2,71.8c2.8-3.4,4.4-6.3,3.8-6.3c-0.9,0-3.5-3-13.1-2c14-8,24.6-16.1,21.2-17.8c-1.4-0.7-4.4-0.1-8.5,1.3
			c-0.1-0.1-1.6-2.5-1.7-2.5c0-0.1-0.3-0.3-0.3-0.4c-0.1-0.3-1.3-1.6-1.5-1.9c17-5.8,30.3-6.5,32.1-2.7
			C289.5,44.3,276.6,58.6,255.2,71.8z"/>
		<path class="st2" d="M198.7,79.7c-8.1-17.1-0.9-37.5,16.2-45.6s37.5-0.9,45.6,16.2"/>
		<path class="st3" d="M200.4,82.8c-0.6-1-1.2-2-1.7-3.1c-8.1-17.1-0.9-37.5,16.2-45.6c1.2-0.6,2.4-1.1,3.7-1.5
			c-11.7,9.8-15.8,26.6-8.9,41c0.9,2,2.1,3.8,3.3,5.5"/>
		<path class="st5" d="M222.8,75.1c-12.3,5.5-17.8,6.8-22.2,8.1c-1.7-2.8-2.7-5.3-3.2-6.6c-0.2-0.5-0.3-0.9-0.3-0.9s0,0,0.2,0
			c1.2,0-1.9,3.5,20.1-4c7.3-2.5,12.9-1.6,17.1-2C229,72.4,227.4,73.1,222.8,75.1z"/>
		<path class="st5" d="M255.2,71.8c-3.7,4.6-7.6,10.8-16.1,12.9c-8.8,2.2-14,16.4-29.4,8.1c-0.3-0.2-0.7-0.4-1-0.6
			c9-2.5,19-6.1,29.1-11C244.1,78.3,249.9,75.1,255.2,71.8z"/>
	</g>
	<path class="st6" d="M243.7,65.2c6-3.6,6.9-4,18.4-11.6l4.1,10.2c-5.6,4.5-11.9,8.7-18.4,11.6L243.7,65.2z"/>
	<path class="st7" d="M200.1,61.8c0,0-3.2,4.5-1.5,6.9s8.7-0.8,10.8-1c2.2-0.2,9.4-0.9,12.9-2.1c3.5-1.2,9.4-8.5,12.2-9.6
		c2.8-1.1,7.5-5.8,8.8-6.8c1.4-1-4-3.9-8.2-1.8c-4.2,2.1-12.9,2.9-16.2,5.8c-3.4,2.9-5.3,5.6-8.1,6.7
		C208.1,61,202.2,59.9,200.1,61.8z"/>
	<path class="st7" d="M230.4,57.2c0,0-1.7,2.1-0.6,4s7,1,8.4,0.9c1.4-0.1,2.6-3.3,4.8-4.2s5.2-4.5,7-5.4c1.8-0.8,6.1-5.1,6-6.5
		c-0.1-2-5.7-1.2-8.3,0.4c-2.6,1.6-5.6,1.5-7.7,3.7c-2.1,2.2-3.3,4.3-5.1,5.1S231.7,55.8,230.4,57.2z"/>
	<path class="st7" d="M199.6,48.5c0,0-0.7,1.4-1.4,2.7c-0.7,1.4,5,2,6.1,2s3.6-0.3,5.5-0.7c1.9-0.4,3.3-3.7,4.8-4.1
		c1.5-0.4,3.4-1.7,3.4-2.7c0.1-1.4-2.5-1.6-4.8-0.7c-2.3,0.9-3.6-0.7-5.5,0.7c-1.9,1.4-3.1,1.9-4.6,2.3
		C201.7,48.5,200.8,47.6,199.6,48.5z"/>
	<path class="st8" d="M234.8,33.5c0.4,0,2.3,0.6,2.4,1.6c0,1,0,2.1-1.4,3.2c-1.1,0.8-2,0.5-2.8,1.1c-0.8,0.5-3.9,1-4.6,0.3
		c-0.6-0.6-0.7-2.7,0.7-4.1c0.8-0.8,2-1.6,3.4-1C233.6,35,233.9,33.5,234.8,33.5z"/>
	<path class="st8" d="M262.3,75.1c0,0-3.1,7.7-4.5,9.3c-1.4,1.6-7.3,4.4-8.7,4.4s-6.8,0.1-5.4-1.3c1.4-1.4,6.9-2.8,7.9-3.9
		c1.8-2,2.9-3.8,3.7-5.2C256.8,75.5,261.5,74.5,262.3,75.1z"/>
</g>
<g id="Layer_13">
	<circle class="st9" cx="322.5" cy="24.6" r="7.3"/>
	<path class="st9" d="M336.5,24.6c-12.2-0.5-14,8.8-13.6,17.2c-0.4-9.9-3.3-17.2-14.5-17.1c12.1-0.1,14-5.4,13.6-17.2
		C322.5,19.6,323.8,24.6,336.5,24.6z"/>
</g>
<g id="Layer_14">
	<circle class="st9" cx="812.6" cy="79.2" r="7.4"/>
	<path class="st9" d="M826.8,79.2c-12.4-0.5-14.3,9-13.8,17.5c-0.4-10.1-3.3-17.5-14.7-17.4c12.3-0.1,14.3-5.4,13.8-17.5
		C812.6,74.1,813.8,79.2,826.8,79.2z"/>
</g>
<g id="Layer_15">
	<circle class="st9" cx="411" cy="70.7" r="6.7"/>
	<path class="st9" d="M423.9,70.7c-11.3-0.5-13,8.2-12.6,15.8c-0.4-9.1-3-15.8-13.3-15.8c11.2-0.1,13-4.9,12.5-15.9
		C411,66.1,412.1,70.7,423.9,70.7z"/>
</g>
<g id="Layer_16">
	<circle class="st9" cx="128.9" cy="86.5" r="5.1"/>
	<path class="st9" d="M138.7,86.5c-8.6-0.4-9.8,6.2-9.5,12c-0.3-6.9-2.3-12-10.1-12c8.5-0.1,9.8-3.7,9.5-12.1
		C128.9,83,129.7,86.5,138.7,86.5z"/>
</g>
<g id="Layer_17">
	<circle class="st9" cx="644.4" cy="33.5" r="5.1"/>
	<path class="st9" d="M654.2,33.5c-8.6-0.4-9.8,6.2-9.5,12c-0.3-6.9-2.3-12-10.1-12c8.5-0.1,9.8-3.7,9.5-12.1
		C644.4,30,645.3,33.5,654.2,33.5z"/>
</g>
<g id="Layer_12">
	<ellipse class="st9" cx="435.1" cy="44.9" rx="3.9" ry="3.8"/>
	<path class="st9" d="M442.6,44.9c-6.5-0.3-7.5,4.6-7.2,9c-0.2-5.2-1.7-9-7.7-8.9c6.4,0,7.5-2.8,7.2-9
		C435.1,42.3,435.8,44.9,442.6,44.9z"/>
</g>
<g id="Layer_18">
	<circle class="st9" cx="76.3" cy="49.8" r="5.1"/>
	<path class="st9" d="M86.1,49.8c-8.6-0.4-9.8,6.2-9.5,12c-0.3-6.9-2.3-12-10.1-12c8.5-0.1,9.8-3.7,9.5-12.1
		C76.3,46.3,77.2,49.8,86.1,49.8z"/>
</g>
<g id="Layer_10">
	<ellipse transform="matrix(0.8846 -0.4664 0.4664 0.8846 35.3183 257.657)" class="st10" cx="538.3" cy="57.5" rx="20.1" ry="15"/>
	<path class="st11" d="M544,58.2c51.4-13.1-32.3-87-58.8-7.7c-2.6,5.4,2.4,10.3,2.7,4c16.1-53.1,79.3-20.5,50.2-4L544,58.2z"/>
	<path class="st11" d="M531.3,56.1c-51.4,13,32.1,87.1,58.8,7.9c2.7-5.4-2.4-10.3-2.7-4c-16.3,53-79.3,20.3-50.3,3.9L531.3,56.1z"/>
	<ellipse transform="matrix(0.8846 -0.4664 0.4664 0.8846 35.3183 257.657)" class="st12" cx="538.3" cy="57.5" rx="20.1" ry="15"/>
	<ellipse transform="matrix(0.8846 -0.4664 0.4664 0.8846 35.3183 257.657)" class="st13" cx="538.3" cy="57.5" rx="27" ry="20.1"/>
	<path class="st14" d="M529.1,57.4c-53.4,16.7-28.2,71.4,17.6,58.3c6.2-1.6,6.5-4.5,1.9-3.5c-52.1,6.5-45.2-38.5-13-47.5L529.1,57.4
		z"/>
	<path class="st14" d="M546.1,50.5c-30.1-35.8-80.4-20.1-88,22.2c-1.5,7.1-0.2,10.9,3.2,6.7c5-28.2,41.5-58.5,83-16.5L546.1,50.5z"
		/>
	<path class="st14" d="M530.7,63.1c31,34.9,81,17.8,87.3-24.6c1.3-7.1-0.1-10.9-3.4-6.7c-4.2,28.3-39.9,59.6-82.5,18.8L530.7,63.1z"
		/>
	<circle class="st15" cx="538.1" cy="57.4" r="10.6"/>
	<circle class="st15" cx="520.5" cy="31.8" r="3.6"/>
	<circle class="st16" cx="488.5" cy="28.3" r="4"/>
	<circle class="st11" cx="479.1" cy="70" r="3.2"/>
	<circle class="st15" cx="566" cy="40.2" r="3.9"/>
	<circle class="st16" cx="572.1" cy="73.1" r="3.2"/>
	<circle class="st15" cx="544" cy="82" r="2.7"/>
	<circle class="st15" cx="508.8" cy="75.6" r="2.4"/>
	<circle class="st11" cx="596.2" cy="50.9" r="2.7"/>
	<circle class="st11" cx="567.8" cy="104.2" r="2.1"/>
	<circle class="st16" cx="544" cy="12.3" r="2.1"/>
	<circle class="st16" cx="520.5" cy="97.7" r="3.5"/>
</g>
<g id="Layer_19">
	<circle class="st17" cx="15.9" cy="16.5" r="3.3"/>
</g>
<g id="Layer_20">
	<circle class="st17" cx="147.5" cy="22.3" r="5.5"/>
	<circle class="st17" cx="47.9" cy="91.6" r="2.6"/>
	<circle class="st17" cx="341" cy="86.5" r="3.2"/>
	<circle class="st17" cx="403.7" cy="16.5" r="3.3"/>
	<circle class="st17" cx="690.2" cy="78" r="2"/>
	<circle class="st17" cx="722.3" cy="37" r="3.5"/>
	<circle class="st17" cx="636.5" cy="97.3" r="2"/>
	<circle class="st17" cx="758.7" cy="22.2" r="2.4"/>
	<circle class="st17" cx="769.9" cy="61.8" r="1"/>
	<circle class="st17" cx="761.1" cy="97.3" r="3.4"/>
	<circle class="st17" cx="828.2" cy="16.6" r="1.3"/>
	<circle class="st17" cx="108.4" cy="77.4" r="3.8"/>
	<circle class="st17" cx="266.9" cy="29.2" r="1.8"/>
	<circle class="st17" cx="930.7" cy="78" r="3.5"/>
	<circle class="st17" cx="964.1" cy="97.6" r="1.7"/>
	<circle class="st17" cx="989.4" cy="63.2" r="2.4"/>
</g>
<g id="Layer_21" class="st0">
	<g class="st1">
		<g>
			<defs>
				<rect id="SVGID_1_" x="183.4" y="21.4" width="91.9" height="87.8"/>
			</defs>
			<clipPath id="SVGID_00000003105489029177911790000013295198551119376302_">
				<use xlink:href="#SVGID_1_"  style="overflow:visible;"/>
			</clipPath>
			<g style="clip-path:url(#SVGID_00000003105489029177911790000013295198551119376302_);">
				<defs>
					<rect id="SVGID_00000127750204890791201320000010404937789681107087_" x="183.4" y="21.4" width="91.9" height="87.8"/>
				</defs>
				<clipPath id="SVGID_00000129922951839065513410000016620578909160285113_">
					<use xlink:href="#SVGID_00000127750204890791201320000010404937789681107087_"  style="overflow:visible;"/>
				</clipPath>
				<g style="clip-path:url(#SVGID_00000129922951839065513410000016620578909160285113_);">
					<defs>
						<rect id="SVGID_00000031167712088005065100000003179070189708824973_" x="183.4" y="21.4" width="91.9" height="87.8"/>
					</defs>
					<clipPath id="SVGID_00000052087030758874473010000008316877228122272423_">
						<use xlink:href="#SVGID_00000031167712088005065100000003179070189708824973_"  style="overflow:visible;"/>
					</clipPath>
					<path style="clip-path:url(#SVGID_00000052087030758874473010000008316877228122272423_);fill:#F2CE86;" d="M268.5,65.3
						c0,21.3-17.2,38.5-38.5,38.5s-38.5-17.2-38.5-38.5s17.2-38.5,38.5-38.5S268.5,44.1,268.5,65.3"/>
				</g>
				<g style="clip-path:url(#SVGID_00000129922951839065513410000016620578909160285113_);">
					<defs>
						<rect id="SVGID_00000083768286021614801080000013942159790049707411_" x="183.4" y="21.4" width="91.9" height="87.8"/>
					</defs>
					<clipPath id="SVGID_00000113319774981207976620000008308846317238264716_">
						<use xlink:href="#SVGID_00000083768286021614801080000013942159790049707411_"  style="overflow:visible;"/>
					</clipPath>
					<g style="opacity:0.5;clip-path:url(#SVGID_00000113319774981207976620000008308846317238264716_);">
						<g>
							<defs>
								<rect id="SVGID_00000060025810141912274040000001656366610264531339_" x="197.7" y="37.1" width="66.5" height="11.6"/>
							</defs>
							<clipPath id="SVGID_00000090995737671969340070000008172137671196313486_">
								<use xlink:href="#SVGID_00000060025810141912274040000001656366610264531339_"  style="overflow:visible;"/>
							</clipPath>
							<path style="clip-path:url(#SVGID_00000090995737671969340070000008172137671196313486_);fill:#FF5E39;" d="M203.9,37.1
								c18,4,35.4,4.2,52.2,0c3.3,3.1,6,6.6,8.1,10.6c-18.7,3.7-35.4-4.1-66.5-3.2C199.5,41.7,201.6,39.2,203.9,37.1"/>
						</g>
					</g>
				</g>
				<g style="clip-path:url(#SVGID_00000129922951839065513410000016620578909160285113_);">
					<defs>
						<path id="SVGID_00000023244497632172104750000017984962985584550529_" d="M191.5,65.3c0,21.3,17.2,38.5,38.5,38.5
							s38.5-17.2,38.5-38.5S251.2,26.9,230,26.9S191.5,44.1,191.5,65.3"/>
					</defs>
					<clipPath id="SVGID_00000121260603938522642060000000208527543405185983_">
						<use xlink:href="#SVGID_00000023244497632172104750000017984962985584550529_"  style="overflow:visible;"/>
					</clipPath>
					<g style="opacity:0.7;clip-path:url(#SVGID_00000121260603938522642060000000208527543405185983_);">
						<g>
							<defs>
								<rect id="SVGID_00000080910382048645550100000011720527354215046578_" x="186.7" y="52.2" width="86.8" height="19"/>
							</defs>
							<clipPath id="SVGID_00000170252088028282449930000016974291468056288424_">
								<use xlink:href="#SVGID_00000080910382048645550100000011720527354215046578_"  style="overflow:visible;"/>
							</clipPath>
							<path style="clip-path:url(#SVGID_00000170252088028282449930000016974291468056288424_);fill:#FF5E39;" d="M190.5,52.7
								c5.5,1.2,11.1,2.3,16.7,3.2c3.9,0.6,7.8,1.2,11.8,1.1c9.1-0.3,18.1-4,27.1-2.6c3,0.5,5.9,1.6,9,2.1
								c6.1,1.1,12.4-0.2,18.1-2.7c1,1.2,0,3-1,4.2c-0.9,1.1-1.8,2.1-3,2.9c-3.8,2.4-8.8,0.9-13.2,0c-5.9-1.2-12.1-1.1-17.6,1.2
								c-3.7,1.6-6.9,4.2-10.6,6c-6.5,3.4-14.6,4.2-21.3,1.2c-6-2.7-11-8.3-17.6-8.7c-0.5,0-1,0-1.4-0.3c-0.4-0.3-0.6-0.8-0.6-1.3
								c-0.3-2.3,1.2-4.4,2.6-6.2c0.2-0.3,0.5-0.6,0.8-0.6c0.3-0.1,0.8,0.2,0.7,0.6"/>
						</g>
					</g>
					<g style="opacity:0.58;clip-path:url(#SVGID_00000121260603938522642060000000208527543405185983_);">
						<g>
							<defs>
								<rect id="SVGID_00000021090942060620525900000005399814087192610465_" x="189.7" y="74.6" width="79.4" height="21.2"/>
							</defs>
							<clipPath id="SVGID_00000026149994750809680700000015571200788318324884_">
								<use xlink:href="#SVGID_00000021090942060620525900000005399814087192610465_"  style="overflow:visible;"/>
							</clipPath>
							<path style="clip-path:url(#SVGID_00000026149994750809680700000015571200788318324884_);fill:#FF5E39;" d="M189.7,75
								c6.4,0.3,12.6,2.4,18.8,4c6.2,1.5,12.9,2.4,19,0.4c2.4-0.8,4.7-2.1,7.1-3.1c1.7-0.7,3.5-1.2,5.4-1.5c1.3-0.2,2.6-0.3,3.9,0
								c1.3,0.4,2.4,1.2,3.5,1.9c5.3,3.4,11.9,4.7,18.2,3.6c1.1-0.2,2.3-0.4,3.2,0.3c1,0.9,0.5,2.7-0.6,3.5
								c-1.1,0.8-2.5,0.9-3.9,1.1c-3.4,0.5-6.8,1.6-9.8,3.3c-2.2,1.2-4.2,2.7-6.3,3.9c-2.5,1.4-5.3,2.4-8.1,2.9
								c-2.3,0.4-4.7,0.5-7,0.1c-2.3-0.5-4.5-1.6-6.7-2.5c-8.4-3.7-17.5-5.9-26.6-6.5c-1.6-0.1-3.2-0.2-4.6-0.8
								c-1.9-0.8-3.4-2.6-4.1-4.6c-0.8-2-0.9-4.1-0.8-6.2"/>
						</g>
					</g>
				</g>
				<g style="clip-path:url(#SVGID_00000129922951839065513410000016620578909160285113_);">
					<defs>
						<rect id="SVGID_00000053543245181232021800000014390917076406809509_" x="183.4" y="21.4" width="91.9" height="87.8"/>
					</defs>
					<clipPath id="SVGID_00000138571773125313819560000014831226694992513927_">
						<use xlink:href="#SVGID_00000053543245181232021800000014390917076406809509_"  style="overflow:visible;"/>
					</clipPath>
					<path style="clip-path:url(#SVGID_00000138571773125313819560000014831226694992513927_);fill:#FF5E39;" d="M250.4,83.5
						c0,3.7-4.4,6.6-9.7,6.6s-9.7-3-9.7-6.6c0-3.7,4.4-6.6,9.7-6.6S250.4,79.8,250.4,83.5"/>
				</g>
			</g>
		</g>
	</g>
</g>
<g id="Layer_22">
	<g>
		<g>
			<defs>
				<rect id="SVGID_00000183211344959026625800000010055503710114548378_" x="128.9" y="13.2" width="194.4" height="109.4"/>
			</defs>
			<clipPath id="SVGID_00000100352879020475011470000008588297048912603307_">
				<use xlink:href="#SVGID_00000183211344959026625800000010055503710114548378_"  style="overflow:visible;"/>
			</clipPath>
			<g style="clip-path:url(#SVGID_00000100352879020475011470000008588297048912603307_);">
				<defs>
					<rect id="SVGID_00000130623598276075337800000006274922166946189740_" x="128.9" y="13.2" width="194.4" height="109.4"/>
				</defs>
				<clipPath id="SVGID_00000180343280242074995410000017791186511375904423_">
					<use xlink:href="#SVGID_00000130623598276075337800000006274922166946189740_"  style="overflow:visible;"/>
				</clipPath>
				<path style="clip-path:url(#SVGID_00000180343280242074995410000017791186511375904423_);fill:#F79F1F;" d="M257.5,73.1
					c-2.9,17.3-19.4,29-36.7,26.1c-17.3-2.9-29-19.4-26.1-36.7c2.9-17.3,19.4-29,36.7-26.1C248.8,39.4,260.4,55.8,257.5,73.1"/>
				<path style="opacity:0.5;clip-path:url(#SVGID_00000180343280242074995410000017791186511375904423_);fill:#EE5A24;" d="
					M250.2,88.6c-7,8.1-18,12.5-29.4,10.6c-17.3-2.9-29-19.4-26.1-36.7c1.3-7.6,5.2-14.1,10.5-18.7c-3.7,4.3-6.3,9.5-7.3,15.5
					C195,76.6,206.7,93,224,96C233.8,97.6,243.3,94.6,250.2,88.6z"/>
			</g>
			<g style="clip-path:url(#SVGID_00000100352879020475011470000008588297048912603307_);">
				<defs>
					<rect id="SVGID_00000046325352123007146400000014854981069925710228_" x="128.9" y="13.2" width="194.4" height="109.4"/>
				</defs>
				<clipPath id="SVGID_00000165956353600678899350000008409980033636768169_">
					<use xlink:href="#SVGID_00000046325352123007146400000014854981069925710228_"  style="overflow:visible;"/>
				</clipPath>
			</g>
			<g style="clip-path:url(#SVGID_00000100352879020475011470000008588297048912603307_);">
				<defs>
					<rect id="SVGID_00000166669740076267235670000012962133637501406353_" x="128.9" y="13.2" width="194.4" height="109.4"/>
				</defs>
				<clipPath id="SVGID_00000067959288187643229400000011477089801776493247_">
					<use xlink:href="#SVGID_00000166669740076267235670000012962133637501406353_"  style="overflow:visible;"/>
				</clipPath>
				<path style="clip-path:url(#SVGID_00000067959288187643229400000011477089801776493247_);fill:#ED4C67;" d="M257.5,62.6l0.1,1.2
					c26.6,6.2,38.2,10.2,37.5,14.6c-1,6-28.7,4.6-70.4-2.5C182.9,68.9,157,61.4,158,55.5c0.8-4.5,12.4-4.9,39.7-2l-0.2,0.4
					c-14-1.4-36.9-3.6-38.1,1.7c-1.2,5.4,35.8,14.5,65.4,19.5c29.6,5,66.4,8.8,68.6,3c0.7-1.7-0.1-5.4-35.7-14c0,0,0,0,0,0l0.1,0.7
					l0.1,1.1c13.7,3.3,22.5,6.4,22.2,8.2c-0.5,2.9-24.9,1.2-54.4-3.8c-29.6-5-53.1-11.5-52.6-14.4c0.3-1.8,9.6-1.8,23.7-0.4l1.5-3.1
					c-27.3-2.9-46.9-2.3-47.6,2.1c-1,6,32,16.5,73.7,23.6c41.7,7.1,76.4,8,77.4,2.1C302.4,75.8,284.2,68.8,257.5,62.6"/>
			</g>
		</g>
	</g>
</g>
<g id="Layer_23">
	<g>
		<g>
			<defs>
				<rect id="SVGID_00000031907996718706373620000009596294673514271678_" x="840.5" y="5.1" width="102.2" height="106"/>
			</defs>
			<clipPath id="SVGID_00000101097348623898442780000003025435557471440264_">
				<use xlink:href="#SVGID_00000031907996718706373620000009596294673514271678_"  style="overflow:visible;"/>
			</clipPath>
			<g style="clip-path:url(#SVGID_00000101097348623898442780000003025435557471440264_);">
				<defs>
					<rect id="SVGID_00000158720229303227682200000011196781519840005773_" x="840.5" y="5.1" width="102.2" height="106"/>
				</defs>
				<clipPath id="SVGID_00000114759578247669854040000002288329477256066459_">
					<use xlink:href="#SVGID_00000158720229303227682200000011196781519840005773_"  style="overflow:visible;"/>
				</clipPath>
				<g style="clip-path:url(#SVGID_00000114759578247669854040000002288329477256066459_);">
					<defs>
						<rect id="SVGID_00000100348791575243097100000005245741036034521529_" x="840.5" y="5.1" width="102.2" height="106"/>
					</defs>
					<clipPath id="SVGID_00000118391945756584946590000002803666806707622053_">
						<use xlink:href="#SVGID_00000100348791575243097100000005245741036034521529_"  style="overflow:visible;"/>
					</clipPath>
					<g style="opacity:0.53;clip-path:url(#SVGID_00000118391945756584946590000002803666806707622053_);">
						<g>
							<defs>
								<rect id="SVGID_00000120553841153244865560000015952637209749998993_" x="842.8" y="8.3" width="96.7" height="99.7"/>
							</defs>
							<clipPath id="SVGID_00000052788609542562333190000008140116765444409019_">
								<use xlink:href="#SVGID_00000120553841153244865560000015952637209749998993_"  style="overflow:visible;"/>
							</clipPath>
							<path style="clip-path:url(#SVGID_00000052788609542562333190000008140116765444409019_);fill:#ED4C67;" d="M909.6,13.1
								c-8.4-5.3-19.4-6.3-28.7-2.6c-3.1,1.2-6.2,3.3-6.9,6.5c-0.4,1.5-0.1,3.1-0.3,4.7c-0.5,3.8-3.5,6.9-6.8,8.8
								c-3.3,2-7,3.2-10.3,5.2c-8.9,5.4-13.6,16.2-13.7,26.6c-0.1,10.4,3.8,20.5,8.9,29.6c4.4,7.8,11,15.7,19.9,16
								c6,0.2,11.6-3.2,16.2-7.1c1.7-1.5,3.4-3.2,3.9-5.4c0.9-4.1-2.5-7.6-4.1-11.5c-1.7-4.3-0.6-9.7,3-12.4c3.9-2.9,9.2-2.1,14.1-2
								c8.4,0.2,17-2.1,23.7-7.2c6.7-5.1,11.1-13.3,10.9-21.7c-0.2-8.4-5.6-16.7-13.5-19.6c-2-0.7-4.2-1.1-6.1-2.1
								C916.2,17.1,913.1,15,909.6,13.1"/>
						</g>
					</g>
					<g style="opacity:0.38;clip-path:url(#SVGID_00000118391945756584946590000002803666806707622053_);">
						<g>
							<defs>
								<rect id="SVGID_00000141454993214897027570000007210328371743801261_" x="856.7" y="18.4" width="66.8" height="46"/>
							</defs>
							<clipPath id="SVGID_00000054252425431142207810000000092920588939655302_">
								<use xlink:href="#SVGID_00000141454993214897027570000007210328371743801261_"  style="overflow:visible;"/>
							</clipPath>
							<path style="clip-path:url(#SVGID_00000054252425431142207810000000092920588939655302_);fill:#B53471;" d="M905.2,22.8
								c-6.1-1-7-4.8-11.5-4.4c-4.5,0.4-8.7,2.9-11.4,6.5c-2,2.8-3.1,6.1-5.1,8.9c-4.5,6.5-12.8,9.4-17.7,15.6
								c-2.7,3.4-4.1,8.5-1.4,11.8c1.9,2.4,5.3,3.1,8.4,3.1c3.1,0,6.2-0.5,9.2-1.4c2.4-0.8,4.8-1.9,7.3-2.4c3.5-0.6,7,0.1,10.5,0.4
								c6.1,0.5,12.4-0.3,17.9-3.1c5.4-2.8,9.9-7.8,11.4-13.7c0.7-2.8,0.8-5.8,0.2-8.6c-0.5-2.4-1.4-4.8-3.1-6.5
								c-1.7-1.6-4-2.5-6.3-3.3C910.9,24.8,908,23.8,905.2,22.8"/>
						</g>
					</g>
					<g style="opacity:0.56;clip-path:url(#SVGID_00000118391945756584946590000002803666806707622053_);">
						<g>
							<defs>
								<rect id="SVGID_00000173876557038254063190000011770913554718383010_" x="856.2" y="51.4" width="26.4" height="41.3"/>
							</defs>
							<clipPath id="SVGID_00000026161827944381525760000013633301405406721692_">
								<use xlink:href="#SVGID_00000173876557038254063190000011770913554718383010_"  style="overflow:visible;"/>
							</clipPath>
							<path style="clip-path:url(#SVGID_00000026161827944381525760000013633301405406721692_);fill:#9980FA;" d="M874.5,92.7
								c-4.9-0.8-9.8-2.7-13.4-6.1c-3.6-3.5-5.7-8.7-4.6-13.5c0.6-2.7,2.1-5.1,3.5-7.4c2-3.2,4-6.3,6.6-9c2.6-2.6,6-4.7,9.6-5.2
								c1.4-0.2,2.8-0.1,4,0.6c2.3,1.4,2.7,4.6,2,7.1c-0.7,2.6-2.3,4.8-3.2,7.3c-1.3,3.7-1,7.9,0.7,11.4c1,2,2.5,3.8,2.6,6
								c0.1,2-0.9,4-2.4,5.4C878.6,90.8,877.9,92.7,874.5,92.7"/>
						</g>
					</g>
					<g style="opacity:0.56;clip-path:url(#SVGID_00000118391945756584946590000002803666806707622053_);">
						<g>
							<defs>
								<rect id="SVGID_00000170253431489861564630000014398692348718917801_" x="879.8" y="26.8" width="32.5" height="31.1"/>
							</defs>
							<clipPath id="SVGID_00000063612787877205383860000000930238213647549832_">
								<use xlink:href="#SVGID_00000170253431489861564630000014398692348718917801_"  style="overflow:visible;"/>
							</clipPath>
							<path style="clip-path:url(#SVGID_00000063612787877205383860000000930238213647549832_);fill:#9980FA;" d="M905.7,29.8
								c-4-0.7-3.9-1.7-7.3-2.4c-4.3-0.9-9.4-0.8-12.4,2.4c-1.4,1.6-2.1,3.6-3.3,5.4c-1,1.5-2.3,2.9-2.8,4.6c-0.6,2.5,0.8,5,2.6,6.8
								c1.7,1.8,3.9,3.3,5.3,5.4c1.3,1.8,2,4.1,3.9,5.2c1.8,1.1,4.1,0.8,6-0.3c1.8-1,3.2-2.7,4.5-4.3c3.1-4,6-8.2,8.6-12.6
								c0.6-1,1.2-2,1.4-3.1C913,33.2,909.4,29.3,905.7,29.8"/>
						</g>
					</g>
					<g style="opacity:0.2;clip-path:url(#SVGID_00000118391945756584946590000002803666806707622053_);">
						<g>
							<defs>
								<rect id="SVGID_00000147926024544505654190000016021363651891779736_" x="916.4" y="47.6" width="5.7" height="5.7"/>
							</defs>
							<clipPath id="SVGID_00000107586671100267825610000013010479366983338639_">
								<use xlink:href="#SVGID_00000147926024544505654190000016021363651891779736_"  style="overflow:visible;"/>
							</clipPath>
							<path style="clip-path:url(#SVGID_00000107586671100267825610000013010479366983338639_);fill:#FFC312;" d="M922.1,50.5
								c0,1.6-1.3,2.8-2.8,2.8c-1.6,0-2.8-1.3-2.8-2.8c0-1.6,1.3-2.8,2.8-2.8C920.8,47.6,922.1,48.9,922.1,50.5"/>
						</g>
					</g>
					<g style="opacity:0.4;clip-path:url(#SVGID_00000118391945756584946590000002803666806707622053_);">
						<g>
							<defs>
								<rect id="SVGID_00000056396471144488846520000008745775866094429329_" x="917" y="48.3" width="4.4" height="4.4"/>
							</defs>
							<clipPath id="SVGID_00000014591981116425123220000003920702992096643237_">
								<use xlink:href="#SVGID_00000056396471144488846520000008745775866094429329_"  style="overflow:visible;"/>
							</clipPath>
							<path style="clip-path:url(#SVGID_00000014591981116425123220000003920702992096643237_);fill:#FFC312;" d="M921.4,50.5
								c0,1.2-1,2.2-2.2,2.2c-1.2,0-2.2-1-2.2-2.2c0-1.2,1-2.2,2.2-2.2C920.4,48.3,921.4,49.3,921.4,50.5"/>
						</g>
					</g>
					<path style="clip-path:url(#SVGID_00000118391945756584946590000002803666806707622053_);fill:#FFC312;" d="M923.4,50.5
						c-3.7-0.2-4.2,2.7-4.1,5.2c-0.1-3-1-5.2-4.3-5.1c3.6,0,4.2-1.6,4.1-5.2C919.2,49,919.6,50.5,923.4,50.5"/>
					<g style="opacity:0.2;clip-path:url(#SVGID_00000118391945756584946590000002803666806707622053_);">
						<g>
							<defs>
								<rect id="SVGID_00000152243752257789125580000000715223150824180103_" x="877.8" y="35" width="7.4" height="7.4"/>
							</defs>
							<clipPath id="SVGID_00000064337070344918668640000005879342525461734822_">
								<use xlink:href="#SVGID_00000152243752257789125580000000715223150824180103_"  style="overflow:visible;"/>
							</clipPath>
							<path style="clip-path:url(#SVGID_00000064337070344918668640000005879342525461734822_);fill:#FFC312;" d="M885.1,38.6
								c0,2-1.7,3.7-3.7,3.7s-3.7-1.7-3.7-3.7c0-2,1.7-3.7,3.7-3.7S885.1,36.6,885.1,38.6"/>
						</g>
					</g>
					<g style="opacity:0.4;clip-path:url(#SVGID_00000118391945756584946590000002803666806707622053_);">
						<g>
							<defs>
								<rect id="SVGID_00000145052197794462513240000006230672854781988998_" x="878.6" y="35.9" width="5.7" height="5.7"/>
							</defs>
							<clipPath id="SVGID_00000136377249505388578230000003697266305423386546_">
								<use xlink:href="#SVGID_00000145052197794462513240000006230672854781988998_"  style="overflow:visible;"/>
							</clipPath>
							<path style="clip-path:url(#SVGID_00000136377249505388578230000003697266305423386546_);fill:#FFC312;" d="M884.2,38.7
								c0,1.6-1.3,2.8-2.8,2.8c-1.6,0-2.8-1.3-2.8-2.8s1.3-2.8,2.8-2.8C882.9,35.9,884.2,37.1,884.2,38.7"/>
						</g>
					</g>
					<path style="clip-path:url(#SVGID_00000118391945756584946590000002803666806707622053_);fill:#FFC312;" d="M886.8,38.7
						c-4.8-0.2-5.5,3.4-5.3,6.7c-0.2-3.9-1.3-6.7-5.6-6.7c4.7,0,5.5-2.1,5.3-6.7C881.4,36.7,881.9,38.7,886.8,38.7"/>
					<g style="opacity:0.2;clip-path:url(#SVGID_00000118391945756584946590000002803666806707622053_);">
						<g>
							<defs>
								<rect id="SVGID_00000153699206208411129900000010607599904520515772_" x="858.9" y="59.8" width="8.8" height="8.8"/>
							</defs>
							<clipPath id="SVGID_00000069379943193698301400000001146917419092295340_">
								<use xlink:href="#SVGID_00000153699206208411129900000010607599904520515772_"  style="overflow:visible;"/>
							</clipPath>
							<path style="clip-path:url(#SVGID_00000069379943193698301400000001146917419092295340_);fill:#F79F1F;" d="M867.7,64.2
								c0,2.4-2,4.4-4.4,4.4c-2.4,0-4.4-2-4.4-4.4c0-2.4,2-4.4,4.4-4.4C865.7,59.8,867.7,61.8,867.7,64.2"/>
						</g>
					</g>
					<g style="opacity:0.4;clip-path:url(#SVGID_00000118391945756584946590000002803666806707622053_);">
						<g>
							<defs>
								<rect id="SVGID_00000048494636346457926810000002294329827335084162_" x="859.8" y="60.9" width="6.7" height="6.7"/>
							</defs>
							<clipPath id="SVGID_00000140708018720807076630000016874086019142041986_">
								<use xlink:href="#SVGID_00000048494636346457926810000002294329827335084162_"  style="overflow:visible;"/>
							</clipPath>
							<path style="clip-path:url(#SVGID_00000140708018720807076630000016874086019142041986_);fill:#F79F1F;" d="M866.6,64.3
								c0,1.9-1.5,3.4-3.4,3.4s-3.4-1.5-3.4-3.4c0-1.9,1.5-3.4,3.4-3.4S866.6,62.4,866.6,64.3"/>
						</g>
					</g>
					<path style="clip-path:url(#SVGID_00000118391945756584946590000002803666806707622053_);fill:#F79F1F;" d="M869.7,64.3
						c-5.7-0.2-6.5,4.1-6.3,8c-0.2-4.6-1.5-8-6.7-7.9c5.6,0,6.5-2.5,6.3-8C863.2,62,863.8,64.3,869.7,64.3"/>
					<g style="opacity:0.2;clip-path:url(#SVGID_00000118391945756584946590000002803666806707622053_);">
						<g>
							<defs>
								<rect id="SVGID_00000132054421849860478580000015603050669075806088_" x="923.2" y="39.1" width="4.4" height="4.4"/>
							</defs>
							<clipPath id="SVGID_00000031208228179452687040000005094344511532445836_">
								<use xlink:href="#SVGID_00000132054421849860478580000015603050669075806088_"  style="overflow:visible;"/>
							</clipPath>
							<path style="clip-path:url(#SVGID_00000031208228179452687040000005094344511532445836_);fill:#F79F1F;" d="M927.5,41.3
								c0,1.2-1,2.2-2.2,2.2c-1.2,0-2.2-1-2.2-2.2c0-1.2,1-2.2,2.2-2.2C926.6,39.1,927.5,40.1,927.5,41.3"/>
						</g>
					</g>
					<g style="opacity:0.4;clip-path:url(#SVGID_00000118391945756584946590000002803666806707622053_);">
						<g>
							<defs>
								<rect id="SVGID_00000163759795826562165170000012008326515477542327_" x="923.6" y="39.7" width="3.4" height="3.4"/>
							</defs>
							<clipPath id="SVGID_00000181807770430177193810000004871308767542187446_">
								<use xlink:href="#SVGID_00000163759795826562165170000012008326515477542327_"  style="overflow:visible;"/>
							</clipPath>
							<path style="clip-path:url(#SVGID_00000181807770430177193810000004871308767542187446_);fill:#F79F1F;" d="M927,41.3
								c0,0.9-0.8,1.7-1.7,1.7c-0.9,0-1.7-0.8-1.7-1.7c0-0.9,0.8-1.7,1.7-1.7C926.3,39.7,927,40.4,927,41.3"/>
						</g>
					</g>
					<path style="clip-path:url(#SVGID_00000118391945756584946590000002803666806707622053_);fill:#F79F1F;" d="M928.6,41.3
						c-2.8-0.1-3.2,2-3.1,4c-0.1-2.3-0.8-4-3.3-4c2.8,0,3.2-1.2,3.1-4C925.3,40.2,925.6,41.3,928.6,41.3"/>
					<g style="opacity:0.2;clip-path:url(#SVGID_00000118391945756584946590000002803666806707622053_);">
						<g>
							<defs>
								<rect id="SVGID_00000046307061283987982860000000426724729053180571_" x="872.7" y="85.9" width="4.1" height="4.1"/>
							</defs>
							<clipPath id="SVGID_00000010996006310713627030000012209992451792557497_">
								<use xlink:href="#SVGID_00000046307061283987982860000000426724729053180571_"  style="overflow:visible;"/>
							</clipPath>
							<path style="clip-path:url(#SVGID_00000010996006310713627030000012209992451792557497_);fill:#FFC312;" d="M876.8,87.9
								c0,1.1-0.9,2.1-2.1,2.1s-2.1-0.9-2.1-2.1c0-1.1,0.9-2.1,2.1-2.1S876.8,86.8,876.8,87.9"/>
						</g>
					</g>
					<g style="opacity:0.4;clip-path:url(#SVGID_00000118391945756584946590000002803666806707622053_);">
						<g>
							<defs>
								<rect id="SVGID_00000080925856167603658360000003873554848110044583_" x="873.1" y="86.4" width="3.2" height="3.2"/>
							</defs>
							<clipPath id="SVGID_00000142174835614189344230000006292322838127699376_">
								<use xlink:href="#SVGID_00000080925856167603658360000003873554848110044583_"  style="overflow:visible;"/>
							</clipPath>
							<path style="clip-path:url(#SVGID_00000142174835614189344230000006292322838127699376_);fill:#FFC312;" d="M876.3,88
								c0,0.9-0.7,1.6-1.6,1.6c-0.9,0-1.6-0.7-1.6-1.6s0.7-1.6,1.6-1.6C875.6,86.4,876.3,87.1,876.3,88"/>
						</g>
					</g>
					<path style="clip-path:url(#SVGID_00000118391945756584946590000002803666806707622053_);fill:#FFC312;" d="M877.8,88
						c-2.7-0.1-3,1.9-3,3.7c-0.1-2.2-0.7-3.7-3.1-3.7c2.6,0,3-1.2,3-3.7C874.7,86.9,875,88,877.8,88"/>
					<g style="opacity:0.2;clip-path:url(#SVGID_00000118391945756584946590000002803666806707622053_);">
						<g>
							<defs>
								<rect id="SVGID_00000165231180655644948530000011377680466804026261_" x="897.6" y="18.3" width="4.1" height="4.1"/>
							</defs>
							<clipPath id="SVGID_00000021093337274979809760000018024376930670577282_">
								<use xlink:href="#SVGID_00000165231180655644948530000011377680466804026261_"  style="overflow:visible;"/>
							</clipPath>
							<path style="clip-path:url(#SVGID_00000021093337274979809760000018024376930670577282_);fill:#F9E491;" d="M901.7,20.3
								c0,1.1-0.9,2.1-2.1,2.1s-2.1-0.9-2.1-2.1c0-1.1,0.9-2.1,2.1-2.1S901.7,19.2,901.7,20.3"/>
						</g>
					</g>
					<g style="opacity:0.4;clip-path:url(#SVGID_00000118391945756584946590000002803666806707622053_);">
						<g>
							<defs>
								<rect id="SVGID_00000134966079843406920140000005612686180905330335_" x="898" y="18.8" width="3.2" height="3.2"/>
							</defs>
							<clipPath id="SVGID_00000016754601740832083220000000228477775933825437_">
								<use xlink:href="#SVGID_00000134966079843406920140000005612686180905330335_"  style="overflow:visible;"/>
							</clipPath>
							<path style="clip-path:url(#SVGID_00000016754601740832083220000000228477775933825437_);fill:#F9E491;" d="M901.2,20.4
								c0,0.9-0.7,1.6-1.6,1.6c-0.9,0-1.6-0.7-1.6-1.6c0-0.9,0.7-1.6,1.6-1.6C900.5,18.8,901.2,19.5,901.2,20.4"/>
						</g>
					</g>
					<path style="clip-path:url(#SVGID_00000118391945756584946590000002803666806707622053_);fill:#F9E491;" d="M902.7,20.4
						c-2.7-0.1-3,1.9-3,3.7c-0.1-2.2-0.7-3.7-3.1-3.7c2.6,0,3-1.2,3-3.7C899.6,19.3,899.9,20.4,902.7,20.4"/>
					<g style="opacity:0.2;clip-path:url(#SVGID_00000118391945756584946590000002803666806707622053_);">
						<g>
							<defs>
								<rect id="SVGID_00000109736021756366525430000001433137620105384111_" x="887" y="48.8" width="7.8" height="7.8"/>
							</defs>
							<clipPath id="SVGID_00000149344686915088960630000004061868701877550255_">
								<use xlink:href="#SVGID_00000109736021756366525430000001433137620105384111_"  style="overflow:visible;"/>
							</clipPath>
							<path style="clip-path:url(#SVGID_00000149344686915088960630000004061868701877550255_);fill:#F9E491;" d="M894.7,52.7
								c0,2.1-1.7,3.9-3.9,3.9c-2.1,0-3.9-1.7-3.9-3.9c0-2.1,1.7-3.9,3.9-3.9C893,48.8,894.7,50.6,894.7,52.7"/>
						</g>
					</g>
					<g style="opacity:0.4;clip-path:url(#SVGID_00000118391945756584946590000002803666806707622053_);">
						<g>
							<defs>
								<rect id="SVGID_00000167393569056860266520000013632187475213744811_" x="887.8" y="49.8" width="6" height="6"/>
							</defs>
							<clipPath id="SVGID_00000011746452065874564230000015037977339553499025_">
								<use xlink:href="#SVGID_00000167393569056860266520000013632187475213744811_"  style="overflow:visible;"/>
							</clipPath>
							<path style="clip-path:url(#SVGID_00000011746452065874564230000015037977339553499025_);fill:#F9E491;" d="M893.8,52.8
								c0,1.6-1.3,3-3,3c-1.6,0-3-1.3-3-3c0-1.6,1.3-3,3-3C892.4,49.8,893.8,51.1,893.8,52.8"/>
						</g>
					</g>
					<path style="clip-path:url(#SVGID_00000118391945756584946590000002803666806707622053_);fill:#F9E491;" d="M896.5,52.8
						c-5-0.2-5.8,3.6-5.6,7c-0.2-4.1-1.3-7-5.9-7c5,0,5.8-2.2,5.6-7.1C890.8,50.7,891.3,52.8,896.5,52.8"/>
					<g style="opacity:0.2;clip-path:url(#SVGID_00000118391945756584946590000002803666806707622053_);">
						<g>
							<defs>
								<rect id="SVGID_00000080169755064679583560000011241911955894742172_" x="873.8" y="52.4" width="7.2" height="7.2"/>
							</defs>
							<clipPath id="SVGID_00000092420925866470620610000006486191145218811057_">
								<use xlink:href="#SVGID_00000080169755064679583560000011241911955894742172_"  style="overflow:visible;"/>
							</clipPath>
							<path style="clip-path:url(#SVGID_00000092420925866470620610000006486191145218811057_);fill:#FFC312;" d="M880.9,56
								c0,2-1.6,3.6-3.6,3.6s-3.6-1.6-3.6-3.6c0-2,1.6-3.6,3.6-3.6S880.9,54,880.9,56"/>
						</g>
					</g>
					<g style="opacity:0.4;clip-path:url(#SVGID_00000118391945756584946590000002803666806707622053_);">
						<g>
							<defs>
								<rect id="SVGID_00000024002792237650666310000003634181514304620960_" x="874.6" y="53.3" width="5.5" height="5.5"/>
							</defs>
							<clipPath id="SVGID_00000021105328429065625170000006282888491502479284_">
								<use xlink:href="#SVGID_00000024002792237650666310000003634181514304620960_"  style="overflow:visible;"/>
							</clipPath>
							<path style="clip-path:url(#SVGID_00000021105328429065625170000006282888491502479284_);fill:#FFC312;" d="M880,56
								c0,1.5-1.2,2.7-2.7,2.7s-2.7-1.2-2.7-2.7c0-1.5,1.2-2.7,2.7-2.7S880,54.5,880,56"/>
						</g>
					</g>
					<path style="clip-path:url(#SVGID_00000118391945756584946590000002803666806707622053_);fill:#FFC312;" d="M882.6,56
						c-4.6-0.2-5.3,3.3-5.1,6.5c-0.2-3.7-1.2-6.5-5.5-6.5c4.6,0,5.3-2,5.1-6.5C877.3,54.1,877.8,56,882.6,56"/>
				</g>
			</g>
		</g>
	</g>
</g>
<g id="Layer_24">
	<ellipse class="st9" cx="983.1" cy="33.5" rx="3.9" ry="3.8"/>
	<path class="st9" d="M990.6,33.5c-6.5-0.3-7.5,4.6-7.2,9c-0.2-5.2-1.7-9-7.7-8.9c6.4,0,7.5-2.8,7.2-9
		C983.1,30.8,983.8,33.5,990.6,33.5z"/>
</g>
</svg>
