<?xml version="1.0" standalone="no"?>
<!DOCTYPE svg PUBLIC "-//W3C//DTD SVG 20010904//EN"
 "http://www.w3.org/TR/2001/REC-SVG-20010904/DTD/svg10.dtd">
<svg version="1.0" xmlns="http://www.w3.org/2000/svg"
 width="260.000000pt" height="260.000000pt" viewBox="0 0 260.000000 260.000000"
 preserveAspectRatio="xMidYMid meet">
<metadata>
Created by potrace 1.11, written by Peter Selinger 2001-2013
</metadata>
<g transform="translate(0.000000,260.000000) scale(0.100000,-0.100000)"
fill="#000000" stroke="none">
<path d="M1287 1894 c-3 -3 -1 -16 5 -29 6 -14 7 -42 1 -76 -7 -49 -11 -54
-36 -57 -16 -2 -31 -10 -34 -18 -3 -9 -16 -20 -29 -25 -13 -4 -24 -15 -24 -24
0 -13 -46 -15 -379 -15 l-380 0 -3 32 c-4 43 -26 48 -30 6 -3 -29 -7 -33 -36
-36 -25 -3 -38 -11 -50 -32 -12 -20 -26 -30 -47 -32 -42 -4 -40 -32 3 -36 42
-4 43 -30 0 -34 -46 -4 -49 -28 -4 -28 l36 0 0 -67 c0 -67 -1 -69 -40 -102
-25 -21 -40 -42 -40 -57 0 -19 -7 -24 -45 -30 -25 -3 -60 -3 -79 0 -36 7 -57
-7 -38 -26 8 -8 15 -8 26 1 10 9 31 10 73 4 52 -7 58 -11 61 -33 2 -14 21 -42
43 -62 l39 -38 0 -135 c0 -125 1 -136 22 -155 22 -20 29 -20 991 -20 974 0
997 1 1019 34 4 6 8 73 8 148 0 128 1 137 20 143 11 3 20 12 20 20 0 7 9 15
20 18 13 3 20 14 20 30 0 27 7 31 78 42 28 5 48 3 58 -6 10 -9 18 -9 26 -1 17
17 -1 34 -29 27 -14 -3 -50 -3 -79 1 -52 6 -54 8 -54 36 0 21 -6 31 -20 35
-11 3 -20 12 -20 19 0 8 -9 19 -20 26 -18 12 -20 24 -20 138 0 97 -3 131 -16
148 l-15 22 -430 0 c-386 0 -429 2 -429 16 0 9 -9 18 -19 21 -11 3 -21 13 -24
23 -3 11 -16 20 -33 22 -27 3 -30 7 -37 61 -6 40 -5 63 3 72 19 23 -12 49 -33
29z m-712 -310 c18 -19 16 -33 -8 -48 -18 -11 -47 0 -54 21 -4 12 23 43 37 43
5 0 16 -7 25 -16z m1079 0 c20 -19 20 -28 1 -44 -18 -15 -45 -10 -59 13 -9 15
-7 21 8 33 25 18 31 18 50 -2z m436 1 c20 -25 8 -50 -25 -50 -21 0 -31 5 -33
18 -4 21 14 47 33 47 7 0 18 -7 25 -15z m-1600 -18 c0 -7 -15 -17 -32 -22 -19
-6 -37 -20 -43 -32 -13 -29 -45 -32 -38 -3 12 45 113 96 113 57z m1080 -2 c0
-13 -60 -15 -480 -15 -420 0 -480 2 -480 15 0 13 60 15 480 15 420 0 480 -2
480 -15z m440 0 c0 -11 -28 -15 -160 -17 -147 -3 -160 -2 -160 15 0 15 14 17
160 17 133 0 160 -2 160 -15z m172 -14 c33 -29 33 -56 0 -33 -9 7 -27 16 -39
22 -26 11 -31 40 -8 40 8 0 29 -13 47 -29z m42 -70 c19 -21 12 -48 -15 -56
-21 -7 -49 10 -49 28 0 12 30 47 40 47 4 0 14 -8 24 -19z m-1805 -25 c9 -11
10 -20 1 -36 -13 -25 -47 -24 -63 2 -22 34 36 66 62 34z m1799 -241 c-3 -102
-8 -189 -12 -192 -16 -16 -21 22 -25 193 l-3 184 22 0 23 0 -5 -185z m-1816 8
c-3 -147 -6 -173 -16 -162 -2 2 -6 75 -8 162 -3 134 -1 157 12 157 13 0 15
-23 12 -157z m1488 81 c0 -9 -15 -13 -50 -12 -74 0 -120 -33 -140 -102 -12
-43 1 -96 30 -128 21 -22 26 -42 12 -42 -11 0 -46 39 -61 67 -15 30 -14 109 3
141 20 39 56 70 100 85 45 15 106 11 106 -9z m-1064 0 c32 -15 64 -48 64 -66
0 -14 -29 -9 -37 6 -13 24 -65 46 -108 46 -87 0 -142 -70 -130 -166 4 -34 3
-54 -4 -54 -19 0 -32 75 -21 124 22 98 142 154 236 110z m1129 -14 c18 -20 18
-21 -1 -41 -23 -23 -50 -17 -59 12 -7 22 10 49 30 49 6 0 20 -9 30 -20z m42
-113 c9 -81 -43 -157 -124 -182 -17 -5 -23 -2 -23 9 0 9 8 16 19 16 25 0 68
35 87 73 12 22 15 45 10 82 -3 29 -3 55 1 59 12 12 25 -12 30 -57z m-1066 27
c17 -21 0 -49 -31 -49 -31 0 -48 28 -31 49 8 9 21 16 31 16 10 0 23 -7 31 -16z
m-21 -100 c-28 -73 -98 -119 -170 -112 -53 5 -50 28 4 28 25 0 55 5 68 11 25
11 68 67 68 87 0 7 9 12 20 12 17 0 18 -3 10 -26z m-232 -36 c31 -31 -10 -75
-43 -48 -19 16 -19 25 1 44 19 19 26 20 42 4z m1147 -58 c0 -30 -35 -40 -55
-15 -10 12 -10 18 0 30 20 25 55 15 55 -15z m-1410 -10 c0 -30 -35 -40 -55
-15 -10 12 -10 18 0 30 20 25 55 15 55 -15z m1810 -40 c0 -30 -35 -40 -55 -15
-10 12 -10 18 0 30 20 25 55 15 55 -15z m-1817 -32 c13 -13 17 -48 6 -48 -10
0 -33 33 -34 48 0 15 12 16 28 0z m106 -40 c8 -14 7 -21 -6 -34 -30 -30 -75 9
-48 42 16 18 39 15 54 -8z m465 3 c8 -14 6 -22 -8 -35 -22 -20 -26 -20 -45 0
-12 12 -13 20 -6 35 14 24 46 25 59 0z m945 -3 c8 -14 7 -21 -6 -34 -30 -30
-75 9 -48 42 16 18 39 15 54 -8z m220 0 c8 -14 7 -21 -6 -34 -30 -30 -75 9
-48 42 16 18 39 15 54 -8z m46 2 c0 -5 -4 -10 -10 -10 -5 0 -10 5 -10 10 0 6
5 10 10 10 6 0 10 -4 10 -10z m-1300 -15 c0 -13 -26 -15 -175 -15 -149 0 -175
2 -175 15 0 13 26 15 175 15 149 0 175 -2 175 -15z m940 0 c0 -13 -52 -15
-410 -15 -358 0 -410 2 -410 15 0 13 52 15 410 15 358 0 410 -2 410 -15z m220
0 c0 -11 -12 -15 -44 -15 -43 0 -63 10 -49 24 3 3 26 6 50 6 32 0 43 -4 43
-15z"/>
</g>
</svg>
